# xmcd CD database file
# Copyright (C) 1995-1998 Ti Kan
#
# Track frame offsets:
#	150
#	11862
#	21980
#	30932
#	41942
#	51660
#	63020
#	74905
#	87212
#	98970
#	109207
#	124837
#	138742
#	152105
#	165920
#	181070
#	197375
#	214152
#	232152
#	247052
#	261470
#	271537
#	282680
#	292765
#	302812
#	312445
#
# Disc length: 4293 seconds
#
# Revision: 5
# Processed by: cddbd v1.4PL0 Copyright (c) Steve Scherf et al.
# Submitted via: CDex 1.30Release
#
DISCID=8b10c31a
DTITLE=Hank Snow - The Singing Ranger Vol. 2  [CD4 of 4)
DYEAR=1990
DGENRE=Country
TTITLE0=On A Tennessee Saturday Night 1990
TTITLE1=Big Wheels 1958
TTITLE2=A Woman Captured Me 1958
TTITLE3=I Heard My Heart Break Lasr Night 1990
TTITLE4=I Wish I Was The Moon 1958
TTITLE5=My Lucky Friend 1958
TTITLE6=Whispering Rain 1958
TTITLE7=I'm Hurtin' All Over 1958
TTITLE8=My Memory 1990
TTITLE9=I'm Here To Get My Baby Out Of Jail 1958
TTITLE10=Don't Make Me Go To Bed And I'll Be Good 1958
TTITLE11=The Convict And The Rose 1958
TTITLE12=There's A Little Box Of Pine In The 7:29 1958
TTITLE13=Put My Little Shoes Away 1958
TTITLE14=The Letter Edged In Black 1958
TTITLE15=Old Shep 1958
TTITLE16=Prisoner's Prayer 1958
TTITLE17=A Drunkard's Child 1958
TTITLE18=Little Buddy 1958
TTITLE19=Nobody's Child 1958
TTITLE20=Sleepy Rio Grande 1990
TTITLE21=Blue Danube Waltz 1957
TTITLE22=Waltz, Kitty Waltz 1990
TTITLE23=Brahms' Lullaby (without echo) 1990
TTITLE24=Under The Double Eagle 1957
TTITLE25=Brahms' Lullaby (with echo) 1990
EXTD=YEAR: 1990 ID3G:   2
EXTT0=
EXTT1=
EXTT2=
EXTT3=
EXTT4=
EXTT5=
EXTT6=
EXTT7=
EXTT8=
EXTT9=
EXTT10=
EXTT11=
EXTT12=
EXTT13=
EXTT14=
EXTT15=
EXTT16=
EXTT17=
EXTT18=
EXTT19=
EXTT20=
EXTT21=
EXTT22=
EXTT23=
EXTT24=
EXTT25=
PLAYORDER=
